<svg width="33" height="33" viewBox="0 0 33 33" fill="none" xmlns="http://www.w3.org/2000/svg">
<path d="M23.5 14.5V17.5C23.5 19.3565 22.7625 21.137 21.4497 22.4497C20.137 23.7625 18.3565 24.5 16.5 24.5C14.6435 24.5 12.863 23.7625 11.5503 22.4497C10.2375 21.137 9.5 19.3565 9.5 17.5V14.5H7.5V17.5C7.50105 19.7131 8.31745 21.8482 9.79322 23.4973C11.269 25.1465 13.3006 26.1941 15.5 26.44V28.5H11.5V30.5H21.5V28.5H17.5V26.44C19.6994 26.1941 21.731 25.1465 23.2068 23.4973C24.6825 21.8482 25.4989 19.7131 25.5 17.5V14.5H23.5Z" fill="#0082FF"/>
<path d="M16.5 22.5C17.8261 22.5 19.0979 21.9732 20.0355 21.0355C20.9732 20.0979 21.5 18.8261 21.5 17.5V7.5C21.5 6.17392 20.9732 4.90215 20.0355 3.96447C19.0979 3.02678 17.8261 2.5 16.5 2.5C15.1739 2.5 13.9021 3.02678 12.9645 3.96447C12.0268 4.90215 11.5 6.17392 11.5 7.5V17.5C11.5 18.8261 12.0268 20.0979 12.9645 21.0355C13.9021 21.9732 15.1739 22.5 16.5 22.5ZM13.5 7.5C13.5 6.70435 13.8161 5.94129 14.3787 5.37868C14.9413 4.81607 15.7044 4.5 16.5 4.5C17.2956 4.5 18.0587 4.81607 18.6213 5.37868C19.1839 5.94129 19.5 6.70435 19.5 7.5V17.5C19.5 18.2956 19.1839 19.0587 18.6213 19.6213C18.0587 20.1839 17.2956 20.5 16.5 20.5C15.7044 20.5 14.9413 20.1839 14.3787 19.6213C13.8161 19.0587 13.5 18.2956 13.5 17.5V7.5Z" fill="#0082FF"/>
</svg>
