<svg width="118" height="19" viewBox="0 0 118 19" fill="none" xmlns="http://www.w3.org/2000/svg">
<g clip-path="url(#clip0)">
<path d="M77.0217 0.438108H67.3671C67.2598 0.438108 67.2062 0.492863 67.2062 0.602373C66.938 5.03753 66.1335 9.85598 64.9535 13.7436V13.9078C65.0071 13.9626 65.0607 13.9626 65.1144 13.9626H68.4398C68.4935 13.9626 68.6007 13.9078 68.6007 13.8531C69.5126 10.8416 70.2635 6.8992 70.5317 3.55915H73.6962V13.7983C73.6962 13.9078 73.7498 13.9626 73.8571 13.9626H77.0217C77.1289 13.9626 77.1826 13.9078 77.1826 13.7983V0.657128C77.1826 0.547618 77.1289 0.438108 77.0217 0.438108ZM117.839 0.438108H114.674C114.567 0.438108 114.513 0.492863 114.513 0.602373V10.7868C113.816 11.0058 113.119 11.0606 112.368 11.0606C110.276 11.0606 109.793 10.4035 109.793 7.55626V0.657128C109.793 0.547618 109.74 0.492863 109.633 0.492863H106.468C106.361 0.492863 106.307 0.547618 106.307 0.657128V7.9943C106.307 12.5937 107.809 14.4006 111.724 14.4006C113.923 14.4006 116.444 13.7983 117.893 13.2508C117.946 13.2508 118 13.1413 118 13.0865V0.657128C118 0.547618 117.946 0.438108 117.839 0.438108ZM51.0617 0.492863H47.8435C47.7362 0.492863 47.6826 0.547618 47.6826 0.602373C47.1998 2.62831 46.1807 6.02312 44.7862 9.5822L41.568 0.547618C41.568 0.492863 41.4607 0.438108 41.4071 0.438108H38.1889C38.1353 0.438108 38.0817 0.492863 38.028 0.492863C37.9744 0.547618 37.9744 0.602373 38.028 0.657128L42.8553 14.1269C42.3726 15.1672 41.8898 16.0433 41.4607 16.8646C41.1389 17.4669 40.8171 18.0692 40.4953 18.7263C40.4417 18.781 40.4953 18.8358 40.4953 18.8906C40.5489 18.9453 40.6026 19.0001 40.6562 19.0001H44.1426C44.1962 19.0001 44.2498 18.9453 44.3035 18.8906C44.8935 17.7407 45.6444 16.0981 46.3417 14.4554C48.3798 9.52744 50.0426 4.92802 51.2762 0.711883C51.2762 0.657128 51.2762 0.602373 51.2226 0.547618C51.1689 0.492863 51.1153 0.492863 51.0617 0.492863ZM62.5398 10.8416C62.5398 10.7868 62.4862 10.7321 62.4326 10.7321H62.2717C61.5207 11.0058 60.0726 11.2796 59.0535 11.2796C56.8544 11.2796 55.8353 10.6773 55.8353 7.22773C55.8353 4.48998 56.1571 3.17586 59.0535 3.17586C59.858 3.17586 60.6626 3.28537 61.628 3.6139C61.7353 3.6139 61.7889 3.6139 61.8426 3.50439C62.218 2.79257 62.6471 1.97125 63.1298 0.876148V0.711883C63.1298 0.657128 63.0762 0.602373 63.0226 0.602373C61.7353 0.164333 60.1798 -0.0546875 58.8389 -0.0546875C54.2262 -0.0546875 52.188 2.13551 52.188 7.11822C52.188 12.1557 54.2262 14.4006 58.8389 14.4006C59.9653 14.4006 62.2717 14.1269 63.3444 13.6888C63.4517 13.6341 63.4517 13.5793 63.4517 13.4698L62.5398 10.8416ZM92.5226 0.492863H89.3044C89.2507 0.492863 89.1435 0.547618 89.1435 0.602373C88.6607 2.62831 87.6417 6.02312 86.2471 9.5822L83.0289 0.547618C83.0289 0.492863 82.9216 0.438108 82.868 0.438108H79.6498C79.5962 0.438108 79.5426 0.492863 79.4889 0.492863C79.4353 0.547618 79.4353 0.602373 79.4889 0.657128L84.3162 14.1269C83.8335 15.1672 83.3507 15.9885 82.9217 16.8646C82.5998 17.4669 82.278 18.0692 81.9562 18.7263C81.9026 18.781 81.9562 18.8358 81.9562 18.8906C82.0098 18.9453 82.0635 19.0001 82.1171 19.0001H85.6035C85.6571 19.0001 85.7107 18.9453 85.7644 18.8906C86.3544 17.7407 87.1053 16.0981 87.8026 14.4554C89.8407 9.52744 91.5035 4.92802 92.6835 0.711883C92.6835 0.657128 92.6835 0.602373 92.6298 0.547618C92.6298 0.492863 92.5762 0.492863 92.5226 0.492863ZM104.323 0.438108H94.9898C94.8826 0.438108 94.8289 0.492863 94.8289 0.602373V13.7983C94.8289 13.9078 94.8826 13.9626 94.9898 13.9626H98.1544C98.2617 13.9626 98.3153 13.9078 98.3153 13.7983V3.6139H103.196C103.25 3.6139 103.357 3.55915 103.357 3.50439C103.733 2.62831 104.108 1.64272 104.483 0.711883V0.547618C104.43 0.492863 104.376 0.438108 104.323 0.438108Z" fill="#EE3F58"/>
<path d="M16.7882 11.389C14.6964 11.389 14.0527 10.7867 14.0527 7.22766C14.0527 3.39481 14.75 3.06628 16.7882 3.06628C18.8264 3.06628 19.5773 3.39481 19.5773 7.22766C19.5773 10.8415 18.88 11.389 16.7882 11.389ZM16.7882 0.054755C12.2291 0.054755 10.4591 2.02594 10.4591 7.17291C10.4591 12.3746 12.2291 14.4006 16.7882 14.4006C21.3473 14.4006 23.1709 12.3746 23.1709 7.17291C23.1709 2.08069 21.3473 0.054755 16.7882 0.054755ZM35.7218 10.8415C35.7218 10.7867 35.6682 10.732 35.6145 10.732H35.4536C34.7027 11.0058 33.2545 11.2795 32.2355 11.2795C30.0364 11.2795 29.0173 10.6772 29.0173 7.22766C29.0173 4.48991 29.3391 3.17579 32.2355 3.17579C33.04 3.17579 33.8445 3.2853 34.81 3.61383C34.8636 3.61383 34.9709 3.61383 35.0245 3.50432C35.4 2.79251 35.8291 1.97118 36.3118 0.876081V0.711815C36.3118 0.65706 36.2582 0.602305 36.2045 0.602305C34.9709 0.21902 33.4155 0 32.0745 0C27.4618 0 25.4236 2.1902 25.4236 7.17291C25.4236 12.2104 27.4618 14.4553 32.0745 14.4553C33.2009 14.4553 35.5073 14.1816 36.58 13.7435C36.6873 13.6888 36.6873 13.634 36.6873 13.5245L35.7218 10.8415ZM9.49364 0.43804H0.160909C0.0536364 0.43804 0 0.54755 0 0.657061V13.853C0 13.9625 0.0536364 14.0173 0.160909 14.0173H3.32545C3.43273 14.0173 3.48636 13.9625 3.48636 13.853V3.61383H8.36727C8.42091 3.61383 8.47454 3.55908 8.52818 3.50432C8.90364 2.62824 9.27909 1.64265 9.65454 0.711815V0.54755C9.60091 0.492795 9.54727 0.43804 9.49364 0.43804Z" fill="#0065B1"/>
</g>
<defs>
<clipPath id="clip0">
<rect width="118" height="19" fill="white"/>
</clipPath>
</defs>
</svg>
