<?xml version="1.0" standalone="no"?>
<!DOCTYPE svg PUBLIC "-//W3C//DTD SVG 20010904//EN"
 "http://www.w3.org/TR/2001/REC-SVG-20010904/DTD/svg10.dtd">
<svg version="1.0" xmlns="http://www.w3.org/2000/svg"
 width="700.000000pt" height="700.000000pt" viewBox="0 0 700.000000 700.000000"
 preserveAspectRatio="xMidYMid meet">
<metadata>
Created by potrace 1.14, written by Peter Selinger 2001-2017
</metadata>
<g transform="translate(0.000000,700.000000) scale(0.100000,-0.100000)"
fill="#000000" stroke="none">
<path d="M5575 6046 c-93 -43 -165 -153 -165 -252 0 -142 135 -274 281 -274
59 0 143 36 187 81 62 61 77 100 77 199 0 75 -3 91 -27 132 -73 123 -227 173
-353 114z"/>
<path d="M2092 5520 c-240 -43 -426 -195 -514 -420 -39 -98 -52 -191 -45 -326
6 -142 29 -229 96 -370 150 -315 459 -628 906 -916 186 -121 201 -123 323 -49
117 71 192 123 322 222 396 301 629 594 726 914 25 81 27 105 28 245 0 141 -2
162 -26 232 -63 188 -178 324 -340 401 -120 58 -179 71 -308 71 -131 -1 -226
-30 -330 -99 -65 -43 -152 -133 -181 -187 -11 -21 -12 -21 -25 -2 -105 147
-219 233 -358 270 -68 19 -208 25 -274 14z"/>
<path d="M1530 2790 l0 -170 1945 0 1945 0 -2 168 -3 167 -1942 3 -1943 2 0
-170z"/>
<path d="M1530 2245 l0 -165 1560 0 1560 0 0 165 0 165 -1560 0 -1560 0 0
-165z"/>
<path d="M2253 1594 c-108 -103 -127 -116 -165 -122 -39 -5 -42 -4 -30 11 8 9
12 26 10 38 -6 42 -28 44 -160 20 -186 -34 -350 -71 -380 -87 -38 -20 -39 -65
-2 -84 30 -17 47 -17 283 -7 116 5 181 5 177 -1 -3 -5 -38 -32 -78 -58 -83
-56 -88 -61 -88 -91 0 -20 25 -43 48 -43 16 0 156 95 223 152 58 49 71 55 122
61 63 6 59 11 41 -52 -3 -13 3 -28 16 -41 17 -17 29 -20 63 -16 23 3 96 8 162
11 157 8 317 31 355 50 38 19 49 59 25 86 -31 33 -112 50 -295 61 -96 6 -176
12 -178 14 -2 1 7 41 20 88 24 95 20 119 -23 123 -18 2 -52 -24 -146 -113z
m47 -104 c0 -5 -5 -10 -11 -10 -5 0 -7 5 -4 10 3 6 8 10 11 10 2 0 4 -4 4 -10z
m269 -104 c-10 -8 -199 -14 -199 -5 0 5 46 9 102 9 56 0 99 -2 97 -4z"/>
</g>
</svg>
