<svg width="33" height="33" viewBox="0 0 33 33" fill="none" xmlns="http://www.w3.org/2000/svg">
<g clip-path="url(#clip0)">
<path d="M30.5 24.5C30.5 25.0304 30.2893 25.5391 29.9142 25.9142C29.5391 26.2893 29.0304 26.5 28.5 26.5H4.5C3.96957 26.5 3.46086 26.2893 3.08579 25.9142C2.71071 25.5391 2.5 25.0304 2.5 24.5V12.5C2.5 11.9696 2.71071 11.4609 3.08579 11.0858C3.46086 10.7107 3.96957 10.5 4.5 10.5H6.844C8.43448 10.4991 9.95953 9.86681 11.084 8.742L12.744 7.086C13.118 6.71188 13.625 6.50117 14.154 6.5H18.842C19.3724 6.50011 19.881 6.7109 20.256 7.086L21.912 8.742C22.4693 9.29943 23.1309 9.7416 23.8591 10.0432C24.5873 10.3449 25.3678 10.5001 26.156 10.5H28.5C29.0304 10.5 29.5391 10.7107 29.9142 11.0858C30.2893 11.4609 30.5 11.9696 30.5 12.5V24.5ZM4.5 8.5C3.43913 8.5 2.42172 8.92143 1.67157 9.67157C0.921427 10.4217 0.5 11.4391 0.5 12.5L0.5 24.5C0.5 25.5609 0.921427 26.5783 1.67157 27.3284C2.42172 28.0786 3.43913 28.5 4.5 28.5H28.5C29.5609 28.5 30.5783 28.0786 31.3284 27.3284C32.0786 26.5783 32.5 25.5609 32.5 24.5V12.5C32.5 11.4391 32.0786 10.4217 31.3284 9.67157C30.5783 8.92143 29.5609 8.5 28.5 8.5H26.156C25.0952 8.49977 24.078 8.0782 23.328 7.328L21.672 5.672C20.922 4.9218 19.9048 4.50023 18.844 4.5H14.156C13.0952 4.50023 12.078 4.9218 11.328 5.672L9.672 7.328C8.92203 8.0782 7.90478 8.49977 6.844 8.5H4.5Z" fill="#0082FF"/>
<path d="M16.5 22.5C15.1739 22.5 13.9021 21.9732 12.9645 21.0355C12.0268 20.0979 11.5 18.8261 11.5 17.5C11.5 16.1739 12.0268 14.9021 12.9645 13.9645C13.9021 13.0268 15.1739 12.5 16.5 12.5C17.8261 12.5 19.0979 13.0268 20.0355 13.9645C20.9732 14.9021 21.5 16.1739 21.5 17.5C21.5 18.8261 20.9732 20.0979 20.0355 21.0355C19.0979 21.9732 17.8261 22.5 16.5 22.5ZM16.5 24.5C18.3565 24.5 20.137 23.7625 21.4497 22.4497C22.7625 21.137 23.5 19.3565 23.5 17.5C23.5 15.6435 22.7625 13.863 21.4497 12.5503C20.137 11.2375 18.3565 10.5 16.5 10.5C14.6435 10.5 12.863 11.2375 11.5503 12.5503C10.2375 13.863 9.5 15.6435 9.5 17.5C9.5 19.3565 10.2375 21.137 11.5503 22.4497C12.863 23.7625 14.6435 24.5 16.5 24.5ZM6.5 13.5C6.5 13.7652 6.39464 14.0196 6.20711 14.2071C6.01957 14.3946 5.76522 14.5 5.5 14.5C5.23478 14.5 4.98043 14.3946 4.79289 14.2071C4.60536 14.0196 4.5 13.7652 4.5 13.5C4.5 13.2348 4.60536 12.9804 4.79289 12.7929C4.98043 12.6054 5.23478 12.5 5.5 12.5C5.76522 12.5 6.01957 12.6054 6.20711 12.7929C6.39464 12.9804 6.5 13.2348 6.5 13.5Z" fill="#0082FF"/>
</g>
<defs>
<clipPath id="clip0">
<rect width="32" height="32" fill="white" transform="translate(0.5 0.5)"/>
</clipPath>
</defs>
</svg>
