<svg width="96" height="78" viewBox="0 0 96 78" fill="none" xmlns="http://www.w3.org/2000/svg">
<g filter="url(#filter0_d)">
<rect x="1" width="93.5294" height="75" rx="10.5882" fill="url(#paint0_linear)"/>
<rect x="1.61765" y="0.617647" width="92.2941" height="73.7647" rx="9.97059" stroke="url(#paint1_linear)" stroke-width="1.23529"/>
</g>
<path d="M48.3779 62.6724C50.0819 61.68 52.7459 58.9289 53.8649 57.6775L52.9671 61.5987C55.877 61.5365 60.8686 61.2346 57.5563 60.525C53.416 59.6381 36.6552 61.7038 50.0139 59.3207" stroke="#BEBEBE" stroke-width="1.41176" stroke-linecap="round" stroke-linejoin="round"/>
<path d="M25.2647 42.353C25.5912 42.353 26.0577 42.1377 26.3998 41.9377C35.1545 36.4014 40.7058 29.9577 40.7058 23.4064C40.7058 17.9624 36.9272 14.1177 32.0445 14.1177C29.0122 14.1177 26.6797 15.7786 25.2647 18.3161C23.8807 15.794 21.5171 14.1177 18.4849 14.1177C13.6021 14.1177 9.82349 17.9624 9.82349 23.4064C9.82349 29.9577 15.3748 36.4014 24.1451 41.9377C24.4716 42.1377 24.9381 42.353 25.2647 42.353Z" fill="url(#paint2_radial)"/>
<rect x="46.8823" y="39.7061" width="38.8235" height="3.52941" fill="#D8D8D8"/>
<rect x="46.8823" y="46.7646" width="30.8824" height="3.52941" fill="#D8D8D8"/>
<circle cx="82.1764" cy="17.6471" r="3.52941" fill="#D8D8D8"/>
<defs>
<filter id="filter0_d" x="0.117647" y="0" width="95.2941" height="78" filterUnits="userSpaceOnUse" color-interpolation-filters="sRGB">
<feFlood flood-opacity="0" result="BackgroundImageFix"/>
<feColorMatrix in="SourceAlpha" type="matrix" values="0 0 0 0 0 0 0 0 0 0 0 0 0 0 0 0 0 0 127 0"/>
<feMorphology radius="0.882353" operator="erode" in="SourceAlpha" result="effect1_dropShadow"/>
<feOffset dy="2.11765"/>
<feGaussianBlur stdDeviation="0.882353"/>
<feColorMatrix type="matrix" values="0 0 0 0 0.784314 0 0 0 0 0.784314 0 0 0 0 0.784314 0 0 0 0.4 0"/>
<feBlend mode="normal" in2="BackgroundImageFix" result="effect1_dropShadow"/>
<feBlend mode="normal" in="SourceGraphic" in2="effect1_dropShadow" result="shape"/>
</filter>
<linearGradient id="paint0_linear" x1="47.7647" y1="0" x2="47.7647" y2="75" gradientUnits="userSpaceOnUse">
<stop stop-color="#F9F9F9"/>
<stop offset="1" stop-color="#F6F6F6"/>
</linearGradient>
<linearGradient id="paint1_linear" x1="47.7647" y1="0" x2="47.7647" y2="75" gradientUnits="userSpaceOnUse">
<stop stop-color="#DFDFDF"/>
<stop offset="1" stop-color="#BDBDBD"/>
</linearGradient>
<radialGradient id="paint2_radial" cx="0" cy="0" r="1" gradientUnits="userSpaceOnUse" gradientTransform="translate(32.2834 10.9298) rotate(118.853) scale(35.8769 38.0158)">
<stop stop-color="#FFBDD5"/>
<stop offset="0.640505" stop-color="#FF5959"/>
</radialGradient>
</defs>
</svg>
